<?xml version="1.0" encoding="UTF-8" standalone="no"?>
<svg
   xmlns:dc="http://purl.org/dc/elements/1.1/"
   xmlns:cc="http://creativecommons.org/ns#"
   xmlns:rdf="http://www.w3.org/1999/02/22-rdf-syntax-ns#"
   xmlns:svg="http://www.w3.org/2000/svg"
   xmlns="http://www.w3.org/2000/svg"
   id="svg2"
   version="1.1"
   xml:space="preserve"
   style="enable-background:new 0 0 45 45;"
   viewBox="0 0 45 45"><metadata
     id="metadata8"><rdf:RDF><cc:Work
         rdf:about=""><dc:format>image/svg+xml</dc:format><dc:type
           rdf:resource="http://purl.org/dc/dcmitype/StillImage" /><dc:title></dc:title></cc:Work></rdf:RDF></metadata><defs
     id="defs6"><clipPath
       clipPathUnits="userSpaceOnUse"
       id="clipPath16"><path
         d="M 0,36 36,36 36,0 0,0 0,36 Z"
         id="path18" /></clipPath><filter
       id="filter5454"
       style="color-interpolation-filters:sRGB;"><feColorMatrix
         id="feColorMatrix5450"
         result="colormatrix"
         in="SourceGraphic"
         values="1 0 0 0 0 0 1 0 0 0 0 0 1 0 0 1 0.4 0.4 0.4 0 " /><feComposite
         id="feComposite5452"
         result="fbSourceGraphic"
         operator="in"
         in2="SourceGraphic"
         in="colormatrix" /><feColorMatrix
         id="feColorMatrix5456"
         values="0 0 0 -1 0 0 0 0 -1 0 0 0 0 -1 0 0 0 0 1 0"
         in="fbSourceGraphic"
         result="fbSourceGraphicAlpha" /><feColorMatrix
         result="colormatrix"
         in="fbSourceGraphic"
         values="1 0 0 0 0 0 1 0 0 0 0 0 1 0 0 1 0.4 0.4 0.4 0 "
         id="feColorMatrix5458" /><feComposite
         result="fbSourceGraphic"
         operator="in"
         in="colormatrix"
         id="feComposite5460"
         in2="fbSourceGraphic" /><feColorMatrix
         id="feColorMatrix5462"
         values="0 0 0 -1 0 0 0 0 -1 0 0 0 0 -1 0 0 0 0 1 0"
         in="fbSourceGraphic"
         result="fbSourceGraphicAlpha" /><feColorMatrix
         result="colormatrix"
         in="fbSourceGraphic"
         values="1 0 0 0 0 0 1 0 0 0 0 0 1 0 0 1 0.4 0.4 0.4 0 "
         id="feColorMatrix5464" /><feComposite
         result="fbSourceGraphic"
         operator="in"
         in="colormatrix"
         id="feComposite5466"
         in2="fbSourceGraphic" /><feColorMatrix
         id="feColorMatrix5468"
         values="0 0 0 -1 0 0 0 0 -1 0 0 0 0 -1 0 0 0 0 1 0"
         in="fbSourceGraphic"
         result="fbSourceGraphicAlpha" /><feColorMatrix
         result="colormatrix"
         in="fbSourceGraphic"
         values="1 0 0 0 0 0 1 0 0 0 0 0 1 0 0 1 0.4 0.4 0.4 0 "
         id="feColorMatrix5470" /><feComposite
         result="fbSourceGraphic"
         operator="in"
         in="colormatrix"
         id="feComposite5472"
         in2="fbSourceGraphic" /><feColorMatrix
         id="feColorMatrix5474"
         values="0 0 0 -1 0 0 0 0 -1 0 0 0 0 -1 0 0 0 0 1 0"
         in="fbSourceGraphic"
         result="fbSourceGraphicAlpha" /><feColorMatrix
         result="colormatrix"
         in="fbSourceGraphic"
         values="1 0 0 0 0 0 1 0 0 0 0 0 1 0 0 1 0.4 0.4 0.4 0 "
         id="feColorMatrix5476" /><feComposite
         result="fbSourceGraphic"
         operator="in"
         in="colormatrix"
         id="feComposite5478"
         in2="fbSourceGraphic" /><feColorMatrix
         id="feColorMatrix5480"
         values="0 0 0 -1 0 0 0 0 -1 0 0 0 0 -1 0 0 0 0 1 0"
         in="fbSourceGraphic"
         result="fbSourceGraphicAlpha" /><feColorMatrix
         result="colormatrix"
         in="fbSourceGraphic"
         values="1 0 0 0 0 0 1 0 0 0 0 0 1 0 0 1 0.4 0.4 0.4 0 "
         id="feColorMatrix5482" /><feComposite
         result="fbSourceGraphic"
         operator="in"
         in="colormatrix"
         id="feComposite5484"
         in2="fbSourceGraphic" /><feColorMatrix
         id="feColorMatrix5486"
         values="0 0 0 -1 0 0 0 0 -1 0 0 0 0 -1 0 0 0 0 1 0"
         in="fbSourceGraphic"
         result="fbSourceGraphicAlpha" /><feColorMatrix
         result="colormatrix"
         in="fbSourceGraphic"
         values="1 0 0 0 0 0 1 0 0 0 0 0 1 0 0 1 0.4 0.4 0.4 0 "
         id="feColorMatrix5488" /><feComposite
         result="fbSourceGraphic"
         operator="in"
         in="colormatrix"
         id="feComposite5490"
         in2="fbSourceGraphic" /><feColorMatrix
         id="feColorMatrix5492"
         values="0 0 0 -1 0 0 0 0 -1 0 0 0 0 -1 0 0 0 0 1 0"
         in="fbSourceGraphic"
         result="fbSourceGraphicAlpha" /><feColorMatrix
         result="colormatrix"
         in="fbSourceGraphic"
         values="1 0 0 0 0 0 1 0 0 0 0 0 1 0 0 1 0.4 0.4 0.4 0 "
         id="feColorMatrix5494" /><feComposite
         result="fbSourceGraphic"
         operator="in"
         in="colormatrix"
         id="feComposite5496"
         in2="fbSourceGraphic" /><feColorMatrix
         id="feColorMatrix5548"
         values="0 0 0 -1 0 0 0 0 -1 0 0 0 0 -1 0 0 0 0 1 0"
         in="fbSourceGraphic"
         result="fbSourceGraphicAlpha" /><feColorMatrix
         in="fbSourceGraphic"
         result="colormatrix"
         values="1 0 0 0 0 0 1 0 0 0 0 0 1 0 0 0 0 0 5 -1 "
         id="feColorMatrix5550" /><feComposite
         result="fbSourceGraphic"
         k2="0.609626"
         operator="arithmetic"
         id="feComposite5552"
         in2="colormatrix" /><feColorMatrix
         id="feColorMatrix5554"
         values="0 0 0 -1 0 0 0 0 -1 0 0 0 0 -1 0 0 0 0 1 0"
         in="fbSourceGraphic"
         result="fbSourceGraphicAlpha" /><feColorMatrix
         in="fbSourceGraphic"
         result="colormatrix"
         values="1 0 0 0 0 0 1 0 0 0 0 0 1 0 0 0 0 0 5 -1 "
         id="feColorMatrix5556" /><feComposite
         result="composite"
         k2="0.6"
         operator="arithmetic"
         id="feComposite5558"
         in2="colormatrix" /></filter></defs><g
     transform="matrix(0.64797914,0,0,0.64797914,-8.7347923,-8.3987567)"
     id="XMLID_1_"><path
       style="fill:#2d4452"
       id="XMLID_3_"
       class="st0"
       d="M 48,15.5 C 30.1,15.5 15.5,30.1 15.5,48 15.5,65.9 30.1,80.5 48,80.5 65.9,80.5 80.5,65.9 80.5,48 80.5,30.1 65.9,15.5 48,15.5" /><path
       style="fill:#233540"
       id="XMLID_4_"
       class="st1"
       d="M 75,64.7 C 74.9,64.5 74.8,64.3 74.8,64.1 74.7,63.9 74.7,63.8 74.6,63.6 74.5,63.4 74.5,63.3 74.4,63.2 74.3,63 74.2,62.8 74.1,62.6 74.1,62.5 74,62.3 74,62.2 73.8,61.6 73.6,61 73.4,60.6 73.3,60.4 73.2,60.2 73.2,60 73.1,59.8 73.1,59.7 73,59.5 72.9,59.3 72.9,59.2 72.8,59.1 72.7,58.9 72.6,58.7 72.5,58.5 72.4,58.3 72.4,58.2 72.3,58.1 72.2,57.9 72.1,57.7 72.1,57.5 72,57.3 72,57.2 71.9,57.1 71.8,56.9 71.8,56.8 71.7,56.7 71.6,56.5 71.5,56.3 71.4,56.1 71.3,56 71.3,55.8 71.2,55.7 71.1,55.5 71,55.3 70.9,55.1 70.8,54.9 70.8,54.8 70.7,54.7 70.6,54.5 70.6,54.4 70.5,54.3 70.4,54.1 70.3,53.9 70.2,53.7 70.2,53.6 70.1,53.5 70.1,53.4 69.9,52.8 69.7,52.2 69.5,51.8 69.4,51.6 69.3,51.4 69.2,51.2 69.1,51 69.1,50.9 69,50.8 68.9,50.6 68.8,50.4 68.8,50.2 68.7,50 68.7,49.9 68.6,49.7 68.5,49.5 68.5,49.4 68.4,49.3 68.3,49.1 68.2,48.9 68.1,48.7 68,48.5 68,48.4 67.9,48.3 67.8,48.1 67.7,47.9 67.6,47.7 67.5,47.5 67.5,47.4 67.4,47.3 67.3,47.1 67.3,47 67.2,46.9 67.1,46.7 67,46.5 66.9,46.3 66.8,46.2 66.8,46 66.7,45.9 66.6,45.7 66.5,45.5 66.4,45.3 66.3,45.1 66.3,45 66.2,44.9 66.1,44.7 66.1,44.6 66,44.4 66,44.3 65.9,44.2 65.9,44.1 65.7,43.4 65.5,42.7 65.2,42.3 65.1,42.2 65.1,42 65,41.9 64.9,41.7 64.8,41.5 64.7,41.3 64.6,41.1 64.6,41 64.5,40.9 64.4,40.7 64.3,40.5 64.3,40.3 64.2,40.1 64.2,40 64.1,39.8 64,39.6 64,39.5 63.9,39.4 63.8,39.2 63.7,39 63.6,38.8 63.5,38.7 63.5,38.5 63.4,38.4 63.3,38.2 63.2,38 63.1,37.8 63,37.6 63,37.5 62.9,37.4 62.8,37.2 62.8,37.1 62.7,37 62.6,36.8 62.5,36.6 62.4,36.4 62.3,36.3 62.3,36.1 62.2,36 62.1,35.8 62,35.6 61.9,35.4 61.9,35.3 61.8,35.2 61.8,35 61.6,34.4 61.4,33.8 61.2,33.4 61.1,33.2 61.1,33.1 61,33 60.9,32.8 60.8,32.6 60.7,32.4 60.6,32.3 60.6,32.1 60.5,32 60.4,31.8 60.3,31.6 60.2,31.4 60.1,31.2 60.1,31.1 60,31 61,30 61,29.8 60.9,29.6 60.8,29.4 60.8,29.3 60.7,29.2 60.6,29 60.6,28.9 60.5,28.7 60.4,28.5 60.3,28.3 60.2,28.1 60.1,28 60.1,27.8 60,27.7 59.9,27.5 59.8,27.3 59.7,27.1 59.6,26.9 59.6,26.8 59.5,26.7 59.4,26.5 59.4,26.4 59.3,26.2 59.2,26 59.1,25.8 59,25.6 58.9,25.5 58.9,25.3 58.8,25.2 58.7,25 58.6,24.8 58.5,24.6 58.4,24.5 58.4,24.2 58.3,24.1 58.1,23.7 58,23.5 57.8,23 H 56.3 37.8 c -1.2,2 -2.4,9.6 -2.4,12.8 0,1.9 0.3,3.8 0.8,5.5 0.2,0.9 0.5,1.8 0.9,2.6 0.1,0.2 0.1,0.4 0.2,0.5 0.1,0.2 0.1,0.3 0.2,0.5 0.1,0.2 0.1,0.4 0.2,0.5 0.1,0.2 0.1,0.3 0.2,0.5 0.1,0.2 0.1,0.3 0.2,0.5 0.1,0.2 0.1,0.3 0.2,0.5 0.1,0.2 0.1,0.3 0.2,0.5 0.1,0.2 0.1,0.3 0.2,0.5 0.1,0.2 0.1,0.3 0.2,0.5 0.1,0.2 0.1,0.3 0.2,0.5 0.1,0.2 0.1,0.4 0.2,0.5 0.1,0.2 0.1,0.3 0.2,0.5 0.1,0.2 0.1,0.3 0.2,0.5 0.1,0.2 0.1,0.3 0.2,0.5 0.1,0.2 0.1,0.3 0.2,0.5 0,0.1 0.1,0.2 0.1,0.3 0.2,0.6 0.4,1.1 0.6,1.6 0.1,0.2 0.1,0.3 0.2,0.5 0.1,0.2 0.1,0.3 0.2,0.5 0.1,0.2 0.1,0.3 0.2,0.5 0.1,0.2 0.1,0.3 0.2,0.5 0.1,0.2 0.1,0.3 0.2,0.5 0.1,0.2 0.1,0.3 0.2,0.5 0.1,0.2 0.1,0.3 0.2,0.5 0.1,0.2 0.1,0.3 0.2,0.5 0.1,0.2 0.1,0.3 0.2,0.5 0.1,0.2 0.1,0.3 0.2,0.5 0.1,0.2 0.1,0.3 0.2,0.5 0.1,0.2 0.1,0.3 0.2,0.5 0.1,0.2 0.1,0.3 0.2,0.5 0.1,0.2 0.1,0.3 0.2,0.5 0,0.1 0.1,0.2 0.1,0.4 0.2,0.5 0.4,1.1 0.6,1.6 0.1,0.2 0.1,0.3 0.2,0.5 0.1,0.2 0.1,0.3 0.2,0.5 0.1,0.2 0.1,0.3 0.2,0.5 0.1,0.2 0.1,0.3 0.2,0.5 0.1,0.2 0.1,0.4 0.2,0.5 0.1,0.2 0.1,0.3 0.2,0.5 0.1,0.2 0.1,0.3 0.2,0.5 0.1,0.2 0.1,0.3 0.2,0.5 0.1,0.2 0.1,0.3 0.2,0.5 0.1,0.2 0.1,0.3 0.2,0.5 0.1,0.2 0.1,0.3 0.2,0.5 0.1,0.2 0.1,0.3 0.2,0.5 0.1,0.2 0.1,0.4 0.2,0.5 0,0.1 0.1,0.2 0.1,0.3 v 2.1 h -7.6 c -0.3,0 -0.5,0.3 -0.5,0.6 0,0.1 0.1,0.3 0.1,0.4 0,0.1 0,0.1 0,0.2 0,0.2 0.1,0.3 0.2,0.4 v 0.1 c 0,0.2 0.1,0.3 0.2,0.4 v 0.1 c 0,0.2 0.1,0.3 0.2,0.4 v 0.1 c 0,0.2 0.1,0.3 0.2,0.4 v 0.1 c 0,0.2 0.1,0.3 0.2,0.4 v 0.1 c 0,0.2 0.1,0.3 0.2,0.4 v 0.1 c 0,0.2 0.1,0.3 0.2,0.4 v 0.1 c 0,0.2 0.1,0.3 0.2,0.4 v 0.1 c 0,0.2 0.1,0.3 0.2,0.4 v 0.1 c 0,0.2 0.1,0.3 0.2,0.4 v 0.1 c 0,0.2 0.1,0.3 0.2,0.4 v 0.1 c 0,0.2 0.1,0.3 0.2,0.4 v 0.1 c 0,0.2 0.1,0.3 0.2,0.4 v 0.1 c 0,0.2 0.1,0.3 0.2,0.4 v 0.1 0 c 1.8,0.3 3.7,0.5 5.6,0.5 11.5,0 21.6,-6 27.3,-15 -0.1,-0.1 -0.1,-0.3 -0.2,-0.4 0.6,0.5 0.6,0.3 0.5,0.2" /><path
       style="fill:#f5f5f5"
       id="XMLID_5_"
       class="st2"
       d="M 56.1,71.7 H 48.5 V 51.6 c 0,-0.3 -0.2,-0.5 -0.5,-0.5 -0.3,0 -0.5,0.2 -0.5,0.5 v 20.2 h -7.6 c -0.3,0 -0.5,0.2 -0.5,0.5 0,0.3 0.2,0.5 0.5,0.5 h 16.3 c 0.3,0 0.5,-0.2 0.5,-0.5 -0.1,-0.4 -0.3,-0.6 -0.6,-0.6 z" /><path
       style="fill:#f5f5f5"
       id="XMLID_6_"
       class="st2"
       d="M 60.7,35.7 C 60.7,32.7 59.4,25 58.2,23 H 37.8 c -1.2,2 -2.5,9.6 -2.5,12.7 z" /><path
       style="fill:#e6e6e6"
       id="XMLID_7_"
       class="st3"
       d="m 58.2,23 h -1.5 c 1.2,2 2.5,9.6 2.5,12.7 h 1.5 C 60.7,32.6 59.4,25 58.2,23 Z" /><path
       style="fill:#c23527"
       id="XMLID_9_"
       class="st4"
       d="M 35.3,35.7 C 35.3,44.8 41.1,52 48,52 54.9,52 60.7,44.9 60.7,35.7 H 35.3" /><path
       style="fill:#b33124"
       id="XMLID_11_"
       class="st5"
       d="m 59.2,35.7 c 0,8.6 -5.4,15.8 -11.9,16.3 0.3,0 0.5,0 0.8,0 6.9,0 12.7,-7.1 12.7,-16.3 z" /><path
       style="fill:#ffffff"
       id="XMLID_12_"
       class="st6"
       d="m 37.7,31.6 h 4.1 c 0.1,-0.5 0.2,-1.3 0.4,-2 l -4.1,-0.3 c -0.1,0.8 -0.3,1.8 -0.4,2.3 z" /><path
       style="fill:#ce5d52"
       id="XMLID_13_"
       class="st7"
       d="m 42.3,40.7 -3.6,1.9 c 0.9,2.1 2.2,4 3.8,5.3 l 3.1,-2.7 c -1.3,-0.9 -2.5,-2.5 -3.3,-4.5" /><path
       style="fill:#ce5d52"
       id="XMLID_14_"
       class="st7"
       d="m 41.6,37.9 -4.1,0.2 c 0.1,0.9 0.3,1.8 0.5,2.6 l 3.9,-1.1 c -0.1,-0.5 -0.3,-1.1 -0.3,-1.7" /></g><g
     transform="matrix(0.04328961,0,0,0.04328961,2.1924337,9.6829259)"
     label="Warstwa 1"
     id="imagebot_2"><g
       style="fill:#000000"
       transform="translate(88.345,-234.07843)"
       label="Warstwa 1"
       id="imagebot_3"><g
         style="fill:#000000"
         transform="matrix(-1,0,0,1,755.44,-0.88158)"
         id="imagebot_23"><path
           style="fill:#c59b00;fill-rule:evenodd;stroke:#b28b00;stroke-width:1px"
           d="m 347.09,896.45 c -50.262,-34.611 -91.991,-4.2205 -130.2,30.147 49.331,13.402 101.57,19.481 130.2,-30.147 z"
           id="imagebot_40" /><path
           style="fill:#c59b00;fill-rule:evenodd;stroke:#b28b00;stroke-width:1px"
           d="m 335.01,866.66 c -2.2303,-60.986 -51.521,-76.327 -101.9,-86.474 18.691,47.579 44.995,93.123 101.9,86.474 z"
           id="imagebot_39" /><path
           style="fill:#c59b00;fill-rule:evenodd;stroke:#b28b00;stroke-width:1px"
           d="m 257.46,868.97 c -47.158,-38.735 -91.305,-11.979 -132.29,19.036 48.022,17.523 99.562,27.995 132.29,-19.036 z"
           id="imagebot_38" /><path
           style="fill:#c59b00;fill-rule:evenodd;stroke:#b28b00;stroke-width:1px"
           d="m 213.73,840.05 c 29.386,-53.485 -5.0433,-91.95 -43.076,-126.52 -8.3777,50.428 -9.1776,103.02 43.076,126.52 z"
           id="imagebot_37" /><path
           style="fill:#c59b00;fill-rule:evenodd;stroke:#b28b00;stroke-width:1px"
           d="m 175.56,838.86 c -34.69,-50.2 -84.493,-36.61 -132.42,-18.05 41.356,30.047 88.034,54.282 132.42,18.056 z"
           id="imagebot_36" /><path
           style="fill:#c59b00;fill-rule:evenodd;stroke:#b28b00;stroke-width:1px"
           d="m 126.56,794.08 c 44.894,-41.337 24.512,-88.766 -0.52771,-133.65 -24.006,45.131 -41.517,94.725 0.52771,133.65 z"
           id="imagebot_35" /><path
           style="fill:#c59b00;fill-rule:evenodd;stroke:#b28b00;stroke-width:1px"
           d="M 102.71,789.03 C 78.197,733.143 26.72,737.014 -23.86,746.117 c 34.886,37.364 76.102,70.035 126.57,42.913 z"
           id="imagebot_34" /><path
           style="fill:#c59b00;fill-rule:evenodd;stroke:#b28b00;stroke-width:1px"
           d="M 61.808,735 C 113.59,702.7 102.36,652.32 86.078,603.57 54.118,643.47 27.712,688.95 61.808,735 Z"
           id="imagebot_33" /><path
           style="fill:#c59b00;fill-rule:evenodd;stroke:#b28b00;stroke-width:1px"
           d="M 43.732,727.44 C 30.23,667.926 -21.05,661.992 -72.438,661.365 c 27.191,43.287 61.485,83.163 116.17,66.075 z"
           id="imagebot_32" /><path
           style="fill:#c59b00;fill-rule:evenodd;stroke:#b28b00;stroke-width:1px"
           d="M 28.354,639.98 C 83.493,613.83 78.104,562.49 67.512,512.2 31.194,548.17 -0.246,590.33 28.354,639.98 Z"
           id="imagebot_31" /><path
           style="fill:#c59b00;fill-rule:evenodd;stroke:#b28b00;stroke-width:1px"
           d="m 19.165,657 c -6.3392,-60.697 -56.553,-72.677 -107.51,-79.403 21.859,46.21 51.175,89.875 107.51,79.403 z"
           id="imagebot_30" /><path
           style="fill:#c59b00;fill-rule:evenodd;stroke:#b28b00;stroke-width:1px"
           d="m 5.1751,540.49 c 59.589,-13.17 65.808,-64.42 66.721,-115.81 -43.438,26.95 -83.504,61.02 -66.721,115.81 z"
           id="imagebot_29" /><path
           style="fill:#c59b00;fill-rule:evenodd;stroke:#b28b00;stroke-width:1px"
           d="m -6.4859,585.25 c 17.245,-58.54 -24.626,-88.73 -69.183,-114.35 2.621,51.052 13.107,102.59 69.183,114.35 z"
           id="imagebot_28" /><path
           style="fill:#c59b00;fill-rule:evenodd;stroke:#b28b00;stroke-width:1px"
           d="m 28.616,425.5 c 60.951,3.0522 80.497,-44.727 94.963,-94.044 -49.017,14.507 -96.665,36.773 -94.963,94.044 z"
           id="imagebot_27" /><path
           style="fill:#c59b00;fill-rule:evenodd;stroke:#b28b00;stroke-width:1px"
           d="m -10.627,491.19 c 36.629,-48.812 7.9621,-91.743 -24.821,-131.32 -15.399,48.744 -23.6,100.69 24.821,131.32 z"
           id="imagebot_26" /><path
           style="fill:#c59b00;fill-rule:evenodd;stroke:#b28b00;stroke-width:1px"
           d="M 55.278,338.67 C 116.2,335.15 130.5,285.55 139.59,234.96 92.411,254.65 47.431,281.91 55.278,338.67 Z"
           id="imagebot_25" /><path
           style="fill:#c59b00;fill-rule:evenodd;stroke:#b28b00;stroke-width:1px"
           d="M 16.39,391.33 C 62.167,350.98 42.814,303.12 18.751,257.7 -6.225,302.31 -24.804,351.51 16.39,391.33 Z"
           id="imagebot_24" /></g><g
         style="fill:#000000"
         id="imagebot_5"><path
           style="fill:#c59b00;fill-rule:evenodd;stroke:#b28b00;stroke-width:1px"
           d="m 347.09,896.45 c -50.262,-34.611 -91.991,-4.2205 -130.2,30.147 49.331,13.402 101.57,19.481 130.2,-30.147 z"
           id="imagebot_22" /><path
           style="fill:#c59b00;fill-rule:evenodd;stroke:#b28b00;stroke-width:1px"
           d="m 335.01,866.66 c -2.2303,-60.986 -51.521,-76.327 -101.9,-86.474 18.691,47.579 44.995,93.123 101.9,86.474 z"
           id="imagebot_21" /><path
           style="fill:#c59b00;fill-rule:evenodd;stroke:#b28b00;stroke-width:1px"
           d="m 257.46,868.97 c -47.158,-38.735 -91.305,-11.979 -132.29,19.036 48.022,17.523 99.562,27.995 132.29,-19.036 z"
           id="imagebot_20" /><path
           style="fill:#c59b00;fill-rule:evenodd;stroke:#b28b00;stroke-width:1px"
           d="m 213.73,840.05 c 29.386,-53.485 -5.0433,-91.95 -43.076,-126.52 -8.3777,50.428 -9.1776,103.02 43.076,126.52 z"
           id="imagebot_19" /><path
           style="fill:#c59b00;fill-rule:evenodd;stroke:#b28b00;stroke-width:1px"
           d="m 175.56,838.86 c -34.69,-50.2 -84.493,-36.61 -132.42,-18.05 41.356,30.047 88.034,54.282 132.42,18.056 z"
           id="imagebot_18" /><path
           style="fill:#c59b00;fill-rule:evenodd;stroke:#b28b00;stroke-width:1px"
           d="m 126.56,794.08 c 44.894,-41.337 24.512,-88.766 -0.52771,-133.65 -24.006,45.131 -41.517,94.725 0.52771,133.65 z"
           id="imagebot_17" /><path
           style="fill:#c59b00;fill-rule:evenodd;stroke:#b28b00;stroke-width:1px"
           d="M 102.71,789.03 C 78.197,733.143 26.72,737.014 -23.86,746.117 c 34.886,37.364 76.102,70.035 126.57,42.913 z"
           id="imagebot_16" /><path
           style="fill:#c59b00;fill-rule:evenodd;stroke:#b28b00;stroke-width:1px"
           d="M 61.808,735 C 113.59,702.7 102.36,652.32 86.078,603.57 54.118,643.47 27.712,688.95 61.808,735 Z"
           id="imagebot_15" /><path
           style="fill:#c59b00;fill-rule:evenodd;stroke:#b28b00;stroke-width:1px"
           d="M 43.732,727.44 C 30.23,667.926 -21.05,661.992 -72.438,661.365 c 27.191,43.287 61.485,83.163 116.17,66.075 z"
           id="imagebot_14" /><path
           style="fill:#c59b00;fill-rule:evenodd;stroke:#b28b00;stroke-width:1px"
           d="M 28.354,639.98 C 83.493,613.83 78.104,562.49 67.512,512.2 31.194,548.17 -0.246,590.33 28.354,639.98 Z"
           id="imagebot_13" /><path
           style="fill:#c59b00;fill-rule:evenodd;stroke:#b28b00;stroke-width:1px"
           d="m 19.165,657 c -6.3392,-60.697 -56.553,-72.677 -107.51,-79.403 21.859,46.21 51.175,89.875 107.51,79.403 z"
           id="imagebot_12" /><path
           style="fill:#c59b00;fill-rule:evenodd;stroke:#b28b00;stroke-width:1px"
           d="m 5.1751,540.49 c 59.589,-13.17 65.808,-64.42 66.721,-115.81 -43.438,26.95 -83.504,61.02 -66.721,115.81 z"
           id="imagebot_11" /><path
           style="fill:#c59b00;fill-rule:evenodd;stroke:#b28b00;stroke-width:1px"
           d="m -6.4859,585.25 c 17.245,-58.54 -24.626,-88.73 -69.183,-114.35 2.621,51.052 13.107,102.59 69.183,114.35 z"
           id="imagebot_10" /><path
           style="fill:#c59b00;fill-rule:evenodd;stroke:#b28b00;stroke-width:1px"
           d="m 28.616,425.5 c 60.951,3.0522 80.497,-44.727 94.963,-94.044 -49.017,14.507 -96.665,36.773 -94.963,94.044 z"
           id="imagebot_9" /><path
           style="fill:#c59b00;fill-rule:evenodd;stroke:#b28b00;stroke-width:1px"
           d="m -10.627,491.19 c 36.629,-48.812 7.9621,-91.743 -24.821,-131.32 -15.399,48.744 -23.6,100.69 24.821,131.32 z"
           id="imagebot_8" /><path
           style="fill:#c59b00;fill-rule:evenodd;stroke:#b28b00;stroke-width:1px"
           d="M 55.278,338.67 C 116.2,335.15 130.5,285.55 139.59,234.96 92.411,254.65 47.431,281.91 55.278,338.67 Z"
           id="imagebot_7" /><path
           style="fill:#c59b00;fill-rule:evenodd;stroke:#b28b00;stroke-width:1px"
           d="M 16.39,391.33 C 62.167,350.98 42.814,303.12 18.751,257.7 -6.225,302.31 -24.804,351.51 16.39,391.33 Z"
           id="imagebot_6" /></g><path
         style="fill:#c59b00;stroke:#b28b00;stroke-width:0.84947002;stroke-linecap:round"
         transform="matrix(1.3462,0,0,1.0294,-97.05,-48.372)"
         d="m 365.68,905.89 a 13.132,17.173 0 1 1 -26.264,0 13.132,17.173 0 1 1 26.264,0 z"
         id="imagebot_4" /></g><title
       id="title3743">Warstwa 1</title></g><style
     type="text/css"
     id="style5582">
	.st0{fill:#2D4452;}
	.st1{fill:#233540;}
	.st2{fill:#F5F5F5;}
	.st3{fill:#E6E6E6;}
	.st4{fill:#C23527;}
	.st5{fill:#B33124;}
	.st6{fill:#FFFFFF;}
	.st7{fill:#CE5D52;}
</style></svg>