<?xml version="1.0" encoding="UTF-8" standalone="no"?>
<svg
   xmlns:dc="http://purl.org/dc/elements/1.1/"
   xmlns:cc="http://creativecommons.org/ns#"
   xmlns:rdf="http://www.w3.org/1999/02/22-rdf-syntax-ns#"
   xmlns:svg="http://www.w3.org/2000/svg"
   xmlns="http://www.w3.org/2000/svg"
   xmlns:sodipodi="http://sodipodi.sourceforge.net/DTD/sodipodi-0.dtd"
   xmlns:inkscape="http://www.inkscape.org/namespaces/inkscape"
   id="svg2"
   version="1.1"
   xml:space="preserve"
   style="enable-background:new 0 0 45 45;"
   viewBox="0 0 45 45"
   sodipodi:docname="logo.svg"
   inkscape:version="0.92.1 r15371"><sodipodi:namedview
     pagecolor="#ffffff"
     bordercolor="#666666"
     borderopacity="1"
     objecttolerance="10"
     gridtolerance="10"
     guidetolerance="10"
     inkscape:pageopacity="0"
     inkscape:pageshadow="2"
     inkscape:window-width="1366"
     inkscape:window-height="704"
     id="namedview89"
     showgrid="false"
     inkscape:zoom="3.7083822"
     inkscape:cx="14.330098"
     inkscape:cy="19.331142"
     inkscape:window-x="0"
     inkscape:window-y="27"
     inkscape:window-maximized="1"
     inkscape:current-layer="svg2" /><metadata
     id="metadata8"><rdf:RDF><cc:Work
         rdf:about=""><dc:format>image/svg+xml</dc:format><dc:type
           rdf:resource="http://purl.org/dc/dcmitype/StillImage" /><dc:title></dc:title></cc:Work></rdf:RDF></metadata><defs
     id="defs6"><clipPath
       clipPathUnits="userSpaceOnUse"
       id="clipPath16"><path
         d="M 0,36 36,36 36,0 0,0 0,36 Z"
         id="path18" /></clipPath><filter
       id="filter5454"
       style="color-interpolation-filters:sRGB;"><feColorMatrix
         id="feColorMatrix5450"
         result="colormatrix"
         in="SourceGraphic"
         values="1 0 0 0 0 0 1 0 0 0 0 0 1 0 0 1 0.4 0.4 0.4 0 " /><feComposite
         id="feComposite5452"
         result="fbSourceGraphic"
         operator="in"
         in2="SourceGraphic"
         in="colormatrix" /><feColorMatrix
         id="feColorMatrix5456"
         values="0 0 0 -1 0 0 0 0 -1 0 0 0 0 -1 0 0 0 0 1 0"
         in="fbSourceGraphic"
         result="fbSourceGraphicAlpha" /><feColorMatrix
         result="colormatrix"
         in="fbSourceGraphic"
         values="1 0 0 0 0 0 1 0 0 0 0 0 1 0 0 1 0.4 0.4 0.4 0 "
         id="feColorMatrix5458" /><feComposite
         result="fbSourceGraphic"
         operator="in"
         in="colormatrix"
         id="feComposite5460"
         in2="fbSourceGraphic" /><feColorMatrix
         id="feColorMatrix5462"
         values="0 0 0 -1 0 0 0 0 -1 0 0 0 0 -1 0 0 0 0 1 0"
         in="fbSourceGraphic"
         result="fbSourceGraphicAlpha" /><feColorMatrix
         result="colormatrix"
         in="fbSourceGraphic"
         values="1 0 0 0 0 0 1 0 0 0 0 0 1 0 0 1 0.4 0.4 0.4 0 "
         id="feColorMatrix5464" /><feComposite
         result="fbSourceGraphic"
         operator="in"
         in="colormatrix"
         id="feComposite5466"
         in2="fbSourceGraphic" /><feColorMatrix
         id="feColorMatrix5468"
         values="0 0 0 -1 0 0 0 0 -1 0 0 0 0 -1 0 0 0 0 1 0"
         in="fbSourceGraphic"
         result="fbSourceGraphicAlpha" /><feColorMatrix
         result="colormatrix"
         in="fbSourceGraphic"
         values="1 0 0 0 0 0 1 0 0 0 0 0 1 0 0 1 0.4 0.4 0.4 0 "
         id="feColorMatrix5470" /><feComposite
         result="fbSourceGraphic"
         operator="in"
         in="colormatrix"
         id="feComposite5472"
         in2="fbSourceGraphic" /><feColorMatrix
         id="feColorMatrix5474"
         values="0 0 0 -1 0 0 0 0 -1 0 0 0 0 -1 0 0 0 0 1 0"
         in="fbSourceGraphic"
         result="fbSourceGraphicAlpha" /><feColorMatrix
         result="colormatrix"
         in="fbSourceGraphic"
         values="1 0 0 0 0 0 1 0 0 0 0 0 1 0 0 1 0.4 0.4 0.4 0 "
         id="feColorMatrix5476" /><feComposite
         result="fbSourceGraphic"
         operator="in"
         in="colormatrix"
         id="feComposite5478"
         in2="fbSourceGraphic" /><feColorMatrix
         id="feColorMatrix5480"
         values="0 0 0 -1 0 0 0 0 -1 0 0 0 0 -1 0 0 0 0 1 0"
         in="fbSourceGraphic"
         result="fbSourceGraphicAlpha" /><feColorMatrix
         result="colormatrix"
         in="fbSourceGraphic"
         values="1 0 0 0 0 0 1 0 0 0 0 0 1 0 0 1 0.4 0.4 0.4 0 "
         id="feColorMatrix5482" /><feComposite
         result="fbSourceGraphic"
         operator="in"
         in="colormatrix"
         id="feComposite5484"
         in2="fbSourceGraphic" /><feColorMatrix
         id="feColorMatrix5486"
         values="0 0 0 -1 0 0 0 0 -1 0 0 0 0 -1 0 0 0 0 1 0"
         in="fbSourceGraphic"
         result="fbSourceGraphicAlpha" /><feColorMatrix
         result="colormatrix"
         in="fbSourceGraphic"
         values="1 0 0 0 0 0 1 0 0 0 0 0 1 0 0 1 0.4 0.4 0.4 0 "
         id="feColorMatrix5488" /><feComposite
         result="fbSourceGraphic"
         operator="in"
         in="colormatrix"
         id="feComposite5490"
         in2="fbSourceGraphic" /><feColorMatrix
         id="feColorMatrix5492"
         values="0 0 0 -1 0 0 0 0 -1 0 0 0 0 -1 0 0 0 0 1 0"
         in="fbSourceGraphic"
         result="fbSourceGraphicAlpha" /><feColorMatrix
         result="colormatrix"
         in="fbSourceGraphic"
         values="1 0 0 0 0 0 1 0 0 0 0 0 1 0 0 1 0.4 0.4 0.4 0 "
         id="feColorMatrix5494" /><feComposite
         result="fbSourceGraphic"
         operator="in"
         in="colormatrix"
         id="feComposite5496"
         in2="fbSourceGraphic" /><feColorMatrix
         id="feColorMatrix5548"
         values="0 0 0 -1 0 0 0 0 -1 0 0 0 0 -1 0 0 0 0 1 0"
         in="fbSourceGraphic"
         result="fbSourceGraphicAlpha" /><feColorMatrix
         in="fbSourceGraphic"
         result="colormatrix"
         values="1 0 0 0 0 0 1 0 0 0 0 0 1 0 0 0 0 0 5 -1 "
         id="feColorMatrix5550" /><feComposite
         result="fbSourceGraphic"
         k2="0.609626"
         operator="arithmetic"
         id="feComposite5552"
         in2="colormatrix" /><feColorMatrix
         id="feColorMatrix5554"
         values="0 0 0 -1 0 0 0 0 -1 0 0 0 0 -1 0 0 0 0 1 0"
         in="fbSourceGraphic"
         result="fbSourceGraphicAlpha" /><feColorMatrix
         in="fbSourceGraphic"
         result="colormatrix"
         values="1 0 0 0 0 0 1 0 0 0 0 0 1 0 0 0 0 0 5 -1 "
         id="feColorMatrix5556" /><feComposite
         result="composite"
         k2="0.6"
         operator="arithmetic"
         id="feComposite5558"
         in2="colormatrix" /></filter></defs><path
     inkscape:connector-curvature="0"
     d="M 27.616837,38.061348 H 22.692196 V 25.036967 c 0,-0.194394 -0.129596,-0.32399 -0.32399,-0.32399 -0.194393,0 -0.323989,0.129596 -0.323989,0.32399 v 13.089179 h -4.924642 c -0.194393,0 -0.323989,0.129595 -0.323989,0.323989 0,0.194394 0.129596,0.32399 0.323989,0.32399 h 10.56206 c 0.194394,0 0.32399,-0.129596 0.32399,-0.32399 -0.0648,-0.259192 -0.194394,-0.388787 -0.388788,-0.388787 z"
     class="st2"
     id="XMLID_5_"
     style="fill:#f5f5f5;stroke-width:0.64797914" /><path
     inkscape:connector-curvature="0"
     d="m 30.597541,14.734099 c 0,-1.943938 -0.842372,-6.9333772 -1.619947,-8.2293355 H 15.758819 c -0.777575,1.2959583 -1.619948,6.2205995 -1.619948,8.2293355 z"
     class="st2"
     id="XMLID_6_"
     style="fill:#f5f5f5;stroke-width:0.64797914;fill-opacity:1" /><path
     inkscape:connector-curvature="0"
     d="m 28.977594,6.5047635 h -0.971969 c 0.777575,1.2959583 1.619948,6.2205995 1.619948,8.2293355 h 0.971968 c 0,-2.008736 -0.842372,-6.9333772 -1.619947,-8.2293355 z"
     class="st3"
     id="XMLID_7_"
     style="fill:#e6e6e6;stroke-width:0.64797914" /><path
     inkscape:connector-curvature="0"
     d="m 14.138871,14.734099 c 0,5.89661 3.758279,10.56206 8.229335,10.56206 4.471056,0 8.229335,-4.600652 8.229335,-10.56206 h -16.45867"
     class="st4"
     id="XMLID_9_"
     style="fill:#c23527;stroke-width:0.64797914" /><path
     inkscape:connector-curvature="0"
     d="m 29.625573,14.734099 c 0,5.57262 -3.499088,10.23807 -7.710952,10.56206 0.194394,0 0.32399,0 0.518383,0 4.471056,0 8.229335,-4.600652 8.229335,-10.56206 z"
     class="st5"
     id="XMLID_11_"
     style="fill:#b33124;stroke-width:0.64797914" /><path
     inkscape:connector-curvature="0"
     d="m 15.694021,12.077384 h 2.656715 c 0.0648,-0.323989 0.129596,-0.842373 0.259191,-1.295958 l -2.656714,-0.194394 c -0.0648,0.518383 -0.194394,1.166363 -0.259192,1.490352 z"
     class="st6"
     id="XMLID_12_"
     style="fill:#ffffff;stroke-width:0.64797914" /><path
     inkscape:connector-curvature="0"
     d="M 18.674725,17.973994 16.342,19.205155 c 0.583182,1.360756 1.425555,2.591916 2.462321,3.434289 L 20.813056,20.8899 c -0.842372,-0.583181 -1.619947,-1.619947 -2.138331,-2.915906"
     class="st7"
     id="XMLID_13_"
     style="fill:#ce5d52;stroke-width:0.64797914" /><path
     inkscape:connector-curvature="0"
     d="m 18.22114,16.159653 -2.656715,0.129596 c 0.0648,0.583181 0.194394,1.166362 0.32399,1.684745 l 2.527119,-0.712777 C 18.350736,16.937228 18.22114,16.54844 18.22114,16.159653"
     class="st7"
     id="XMLID_14_"
     style="fill:#ce5d52;stroke-width:0.64797914" /><g
     style="fill:#ffffff;fill-opacity:1;stroke:none"
     transform="matrix(-0.04328961,0,0,0.04328961,38.719557,-0.48840129)"
     id="imagebot_23"><path
       style="fill:#ffffff;fill-opacity:1;fill-rule:evenodd;stroke:none;stroke-width:1px"
       d="m 347.09,896.45 c -50.262,-34.611 -91.991,-4.2205 -130.2,30.147 49.331,13.402 101.57,19.481 130.2,-30.147 z"
       id="imagebot_40"
       inkscape:connector-curvature="0" /><path
       style="fill:#ffffff;fill-opacity:1;fill-rule:evenodd;stroke:none;stroke-width:1px"
       d="m 335.01,866.66 c -2.2303,-60.986 -51.521,-76.327 -101.9,-86.474 18.691,47.579 44.995,93.123 101.9,86.474 z"
       id="imagebot_39"
       inkscape:connector-curvature="0" /><path
       style="fill:#ffffff;fill-opacity:1;fill-rule:evenodd;stroke:none;stroke-width:1px"
       d="m 257.46,868.97 c -47.158,-38.735 -91.305,-11.979 -132.29,19.036 48.022,17.523 99.562,27.995 132.29,-19.036 z"
       id="imagebot_38"
       inkscape:connector-curvature="0" /><path
       style="fill:#ffffff;fill-opacity:1;fill-rule:evenodd;stroke:none;stroke-width:1px"
       d="m 213.73,840.05 c 29.386,-53.485 -5.0433,-91.95 -43.076,-126.52 -8.3777,50.428 -9.1776,103.02 43.076,126.52 z"
       id="imagebot_37"
       inkscape:connector-curvature="0" /><path
       style="fill:#ffffff;fill-opacity:1;fill-rule:evenodd;stroke:none;stroke-width:1px"
       d="m 175.56,838.86 c -34.69,-50.2 -84.493,-36.61 -132.42,-18.05 41.356,30.047 88.034,54.282 132.42,18.056 z"
       id="imagebot_36"
       inkscape:connector-curvature="0" /><path
       style="fill:#ffffff;fill-opacity:1;fill-rule:evenodd;stroke:none;stroke-width:1px"
       d="m 126.56,794.08 c 44.894,-41.337 24.512,-88.766 -0.52771,-133.65 -24.006,45.131 -41.517,94.725 0.52771,133.65 z"
       id="imagebot_35"
       inkscape:connector-curvature="0" /><path
       style="fill:#ffffff;fill-opacity:1;fill-rule:evenodd;stroke:none;stroke-width:1px"
       d="M 102.71,789.03 C 78.197,733.143 26.72,737.014 -23.86,746.117 c 34.886,37.364 76.102,70.035 126.57,42.913 z"
       id="imagebot_34"
       inkscape:connector-curvature="0" /><path
       style="fill:#ffffff;fill-opacity:1;fill-rule:evenodd;stroke:none;stroke-width:1px"
       d="M 61.808,735 C 113.59,702.7 102.36,652.32 86.078,603.57 54.118,643.47 27.712,688.95 61.808,735 Z"
       id="imagebot_33"
       inkscape:connector-curvature="0" /><path
       style="fill:#ffffff;fill-opacity:1;fill-rule:evenodd;stroke:none;stroke-width:1px"
       d="M 43.732,727.44 C 30.23,667.926 -21.05,661.992 -72.438,661.365 c 27.191,43.287 61.485,83.163 116.17,66.075 z"
       id="imagebot_32"
       inkscape:connector-curvature="0" /><path
       style="fill:#ffffff;fill-opacity:1;fill-rule:evenodd;stroke:none;stroke-width:1px"
       d="M 28.354,639.98 C 83.493,613.83 78.104,562.49 67.512,512.2 31.194,548.17 -0.246,590.33 28.354,639.98 Z"
       id="imagebot_31"
       inkscape:connector-curvature="0" /><path
       style="fill:#ffffff;fill-opacity:1;fill-rule:evenodd;stroke:none;stroke-width:1px"
       d="m 19.165,657 c -6.3392,-60.697 -56.553,-72.677 -107.51,-79.403 21.859,46.21 51.175,89.875 107.51,79.403 z"
       id="imagebot_30"
       inkscape:connector-curvature="0" /><path
       style="fill:#ffffff;fill-opacity:1;fill-rule:evenodd;stroke:none;stroke-width:1px"
       d="m 5.1751,540.49 c 59.589,-13.17 65.808,-64.42 66.721,-115.81 -43.438,26.95 -83.504,61.02 -66.721,115.81 z"
       id="imagebot_29"
       inkscape:connector-curvature="0" /><path
       style="fill:#ffffff;fill-opacity:1;fill-rule:evenodd;stroke:none;stroke-width:1px"
       d="m -6.4859,585.25 c 17.245,-58.54 -24.626,-88.73 -69.183,-114.35 2.621,51.052 13.107,102.59 69.183,114.35 z"
       id="imagebot_28"
       inkscape:connector-curvature="0" /><path
       style="fill:#ffffff;fill-opacity:1;fill-rule:evenodd;stroke:none;stroke-width:1px"
       d="m 28.616,425.5 c 60.951,3.0522 80.497,-44.727 94.963,-94.044 -49.017,14.507 -96.665,36.773 -94.963,94.044 z"
       id="imagebot_27"
       inkscape:connector-curvature="0" /><path
       style="fill:#ffffff;fill-opacity:1;fill-rule:evenodd;stroke:none;stroke-width:1px"
       d="m -10.627,491.19 c 36.629,-48.812 7.9621,-91.743 -24.821,-131.32 -15.399,48.744 -23.6,100.69 24.821,131.32 z"
       id="imagebot_26"
       inkscape:connector-curvature="0" /><path
       style="fill:#ffffff;fill-opacity:1;fill-rule:evenodd;stroke:none;stroke-width:1px"
       d="M 55.278,338.67 C 116.2,335.15 130.5,285.55 139.59,234.96 92.411,254.65 47.431,281.91 55.278,338.67 Z"
       id="imagebot_25"
       inkscape:connector-curvature="0" /><path
       style="fill:#ffffff;fill-opacity:1;fill-rule:evenodd;stroke:none;stroke-width:1px"
       d="M 16.39,391.33 C 62.167,350.98 42.814,303.12 18.751,257.7 -6.225,302.31 -24.804,351.51 16.39,391.33 Z"
       id="imagebot_24"
       inkscape:connector-curvature="0" /></g><g
     style="fill:#ffffff;fill-opacity:1;stroke:none"
     id="imagebot_5"
     transform="matrix(0.04328961,0,0,0.04328961,6.0168543,-0.45023804)"><path
       style="fill:#ffffff;fill-opacity:1;fill-rule:evenodd;stroke:none;stroke-width:1px"
       d="m 347.09,896.45 c -50.262,-34.611 -91.991,-4.2205 -130.2,30.147 49.331,13.402 101.57,19.481 130.2,-30.147 z"
       id="imagebot_22"
       inkscape:connector-curvature="0" /><path
       style="fill:#ffffff;fill-opacity:1;fill-rule:evenodd;stroke:none;stroke-width:1px"
       d="m 335.01,866.66 c -2.2303,-60.986 -51.521,-76.327 -101.9,-86.474 18.691,47.579 44.995,93.123 101.9,86.474 z"
       id="imagebot_21"
       inkscape:connector-curvature="0" /><path
       style="fill:#ffffff;fill-opacity:1;fill-rule:evenodd;stroke:none;stroke-width:1px"
       d="m 257.46,868.97 c -47.158,-38.735 -91.305,-11.979 -132.29,19.036 48.022,17.523 99.562,27.995 132.29,-19.036 z"
       id="imagebot_20"
       inkscape:connector-curvature="0" /><path
       style="fill:#ffffff;fill-opacity:1;fill-rule:evenodd;stroke:none;stroke-width:1px"
       d="m 213.73,840.05 c 29.386,-53.485 -5.0433,-91.95 -43.076,-126.52 -8.3777,50.428 -9.1776,103.02 43.076,126.52 z"
       id="imagebot_19"
       inkscape:connector-curvature="0" /><path
       style="fill:#ffffff;fill-opacity:1;fill-rule:evenodd;stroke:none;stroke-width:1px"
       d="m 175.56,838.86 c -34.69,-50.2 -84.493,-36.61 -132.42,-18.05 41.356,30.047 88.034,54.282 132.42,18.056 z"
       id="imagebot_18"
       inkscape:connector-curvature="0" /><path
       style="fill:#ffffff;fill-opacity:1;fill-rule:evenodd;stroke:none;stroke-width:1px"
       d="m 126.56,794.08 c 44.894,-41.337 24.512,-88.766 -0.52771,-133.65 -24.006,45.131 -41.517,94.725 0.52771,133.65 z"
       id="imagebot_17"
       inkscape:connector-curvature="0" /><path
       style="fill:#ffffff;fill-opacity:1;fill-rule:evenodd;stroke:none;stroke-width:1px"
       d="M 102.71,789.03 C 78.197,733.143 26.72,737.014 -23.86,746.117 c 34.886,37.364 76.102,70.035 126.57,42.913 z"
       id="imagebot_16"
       inkscape:connector-curvature="0" /><path
       style="fill:#ffffff;fill-opacity:1;fill-rule:evenodd;stroke:none;stroke-width:1px"
       d="M 61.808,735 C 113.59,702.7 102.36,652.32 86.078,603.57 54.118,643.47 27.712,688.95 61.808,735 Z"
       id="imagebot_15"
       inkscape:connector-curvature="0" /><path
       style="fill:#ffffff;fill-opacity:1;fill-rule:evenodd;stroke:none;stroke-width:1px"
       d="M 43.732,727.44 C 30.23,667.926 -21.05,661.992 -72.438,661.365 c 27.191,43.287 61.485,83.163 116.17,66.075 z"
       id="imagebot_14"
       inkscape:connector-curvature="0" /><path
       style="fill:#ffffff;fill-opacity:1;fill-rule:evenodd;stroke:none;stroke-width:1px"
       d="M 28.354,639.98 C 83.493,613.83 78.104,562.49 67.512,512.2 31.194,548.17 -0.246,590.33 28.354,639.98 Z"
       id="imagebot_13"
       inkscape:connector-curvature="0" /><path
       style="fill:#ffffff;fill-opacity:1;fill-rule:evenodd;stroke:none;stroke-width:1px"
       d="m 19.165,657 c -6.3392,-60.697 -56.553,-72.677 -107.51,-79.403 21.859,46.21 51.175,89.875 107.51,79.403 z"
       id="imagebot_12"
       inkscape:connector-curvature="0" /><path
       style="fill:#ffffff;fill-opacity:1;fill-rule:evenodd;stroke:none;stroke-width:1px"
       d="m 5.1751,540.49 c 59.589,-13.17 65.808,-64.42 66.721,-115.81 -43.438,26.95 -83.504,61.02 -66.721,115.81 z"
       id="imagebot_11"
       inkscape:connector-curvature="0" /><path
       style="fill:#ffffff;fill-opacity:1;fill-rule:evenodd;stroke:none;stroke-width:1px"
       d="m -6.4859,585.25 c 17.245,-58.54 -24.626,-88.73 -69.183,-114.35 2.621,51.052 13.107,102.59 69.183,114.35 z"
       id="imagebot_10"
       inkscape:connector-curvature="0" /><path
       style="fill:#ffffff;fill-opacity:1;fill-rule:evenodd;stroke:none;stroke-width:1px"
       d="m 28.616,425.5 c 60.951,3.0522 80.497,-44.727 94.963,-94.044 -49.017,14.507 -96.665,36.773 -94.963,94.044 z"
       id="imagebot_9"
       inkscape:connector-curvature="0" /><path
       style="fill:#ffffff;fill-opacity:1;fill-rule:evenodd;stroke:none;stroke-width:1px"
       d="m -10.627,491.19 c 36.629,-48.812 7.9621,-91.743 -24.821,-131.32 -15.399,48.744 -23.6,100.69 24.821,131.32 z"
       id="imagebot_8"
       inkscape:connector-curvature="0" /><path
       style="fill:#ffffff;fill-opacity:1;fill-rule:evenodd;stroke:none;stroke-width:1px"
       d="M 55.278,338.67 C 116.2,335.15 130.5,285.55 139.59,234.96 92.411,254.65 47.431,281.91 55.278,338.67 Z"
       id="imagebot_7"
       inkscape:connector-curvature="0" /><path
       style="fill:#ffffff;fill-opacity:1;fill-rule:evenodd;stroke:none;stroke-width:1px"
       d="M 16.39,391.33 C 62.167,350.98 42.814,303.12 18.751,257.7 -6.225,302.31 -24.804,351.51 16.39,391.33 Z"
       id="imagebot_6"
       inkscape:connector-curvature="0" /></g><path
     style="fill:#ffffff;fill-opacity:1;stroke:none;stroke-width:0.0432891;stroke-linecap:round"
     d="m 23.126137,37.824317 a 0.7652866,0.76526872 0 1 1 -1.530573,0 0.7652866,0.76526872 0 1 1 1.530573,0 z"
     id="imagebot_4"
     inkscape:connector-curvature="0" /><style
     type="text/css"
     id="style5582">
	.st0{fill:#2D4452;}
	.st1{fill:#233540;}
	.st2{fill:#F5F5F5;}
	.st3{fill:#E6E6E6;}
	.st4{fill:#C23527;}
	.st5{fill:#B33124;}
	.st6{fill:#FFFFFF;}
	.st7{fill:#CE5D52;}
</style></svg>